REM DIRINDEX 1\2\5,1\2\6,1\2\7,1\2\8,1\3\9,1\3\10,1\3\11,1\4\12,1\4\13,1\4\14,1\4\15,1\4\16
REM DIRNAME folder01,folder02,folder03,folder04,folder05,folder06,folder07,folder08,folder09,folder10,folder11,folder12,folder13,folder14,folder15,folder16
TITLE ""
FILE "1200_sec02_0292_0298.mp3" MP3
  TRACK 01 AUDIO
    TITLE "0:"
    INDEX 01 00:00:00
  TRACK 02 AUDIO
    TITLE "12:cjc034_04805"
    INDEX 01 00:00:17
  TRACK 03 AUDIO
    TITLE "0:"
    INDEX 01 00:01:19
  TRACK 04 AUDIO
    TITLE "13:cjc034_04806"
    INDEX 01 00:01:52
  TRACK 05 AUDIO
    TITLE "0:"
    INDEX 01 00:02:69
  TRACK 06 AUDIO
    TITLE "14:cjc034_04807"
    INDEX 01 00:03:25
  TRACK 07 AUDIO
    TITLE "0:"
    INDEX 01 00:04:27
  TRACK 08 AUDIO
    TITLE "15:cjc034_04808"
    INDEX 01 00:04:60
  TRACK 09 AUDIO
    TITLE "0:"
    INDEX 01 00:08:40
  TRACK 10 AUDIO
    TITLE "12:cjc034_04809"
    INDEX 01 00:10:00
  TRACK 11 AUDIO
    TITLE "0:"
    INDEX 01 00:11:15
  TRACK 12 AUDIO
    TITLE "13:cjc034_04810"
    INDEX 01 00:11:50
  TRACK 13 AUDIO
    TITLE "0:"
    INDEX 01 00:14:31
  TRACK 14 AUDIO
    TITLE "14:cjc034_04811"
    INDEX 01 00:14:64
  TRACK 15 AUDIO
    TITLE "0:"
    INDEX 01 00:16:06
  TRACK 16 AUDIO
    TITLE "15:cjc034_04812"
    INDEX 01 00:16:38
  TRACK 17 AUDIO
    TITLE "0:"
    INDEX 01 00:20:55
  TRACK 18 AUDIO
    TITLE "12:cjc034_04813"
    INDEX 01 00:22:13
  TRACK 19 AUDIO
    TITLE "0:"
    INDEX 01 00:23:18
  TRACK 20 AUDIO
    TITLE "13:cjc034_04814"
    INDEX 01 00:23:51
  TRACK 21 AUDIO
    TITLE "0:"
    INDEX 01 00:25:60
  TRACK 22 AUDIO
    TITLE "14:cjc034_04815"
    INDEX 01 00:26:20
  TRACK 23 AUDIO
    TITLE "0:"
    INDEX 01 00:27:24
  TRACK 24 AUDIO
    TITLE "15:cjc034_04816"
    INDEX 01 00:27:57
  TRACK 25 AUDIO
    TITLE "0:"
    INDEX 01 00:30:67
  TRACK 26 AUDIO
    TITLE "12:cjc034_04817"
    INDEX 01 00:32:25
  TRACK 27 AUDIO
    TITLE "0:"
    INDEX 01 00:33:24
  TRACK 28 AUDIO
    TITLE "13:cjc034_04818"
    INDEX 01 00:33:60
  TRACK 29 AUDIO
    TITLE "0:"
    INDEX 01 00:36:13
  TRACK 30 AUDIO
    TITLE "14:cjc034_04819"
    INDEX 01 00:36:44
  TRACK 31 AUDIO
    TITLE "0:"
    INDEX 01 00:37:46
  TRACK 32 AUDIO
    TITLE "15:cjc034_04820"
    INDEX 01 00:38:04
  TRACK 33 AUDIO
    TITLE "0:"
    INDEX 01 00:41:69
  TRACK 34 AUDIO
    TITLE "16:cjc034_04821"
    INDEX 01 00:43:29
  TRACK 35 AUDIO
    TITLE "0:"
    INDEX 01 00:45:10
  TRACK 36 AUDIO
    TITLE "12:cjc034_04822"
    INDEX 01 00:46:13
  TRACK 37 AUDIO
    TITLE "0:"
    INDEX 01 00:47:19
  TRACK 38 AUDIO
    TITLE "13:cjc034_04823"
    INDEX 01 00:47:52
  TRACK 39 AUDIO
    TITLE "0:"
    INDEX 01 00:51:09
  TRACK 40 AUDIO
    TITLE "14:cjc034_04824"
    INDEX 01 00:51:40
  TRACK 41 AUDIO
    TITLE "0:"
    INDEX 01 00:52:45
  TRACK 42 AUDIO
    TITLE "15:cjc034_04825"
    INDEX 01 00:53:04
  TRACK 43 AUDIO
    TITLE "0:"
    INDEX 01 00:56:39
  TRACK 44 AUDIO
    TITLE "12:cjc034_04826"
    INDEX 01 00:58:03
  TRACK 45 AUDIO
    TITLE "0:"
    INDEX 01 00:59:06
  TRACK 46 AUDIO
    TITLE "13:cjc034_04827"
    INDEX 01 00:59:41
  TRACK 47 AUDIO
    TITLE "0:"
    INDEX 01 01:01:54
  TRACK 48 AUDIO
    TITLE "14:cjc034_04828"
    INDEX 01 01:02:10
  TRACK 49 AUDIO
    TITLE "0:"
    INDEX 01 01:03:12
  TRACK 50 AUDIO
    TITLE "15:cjc034_04829"
    INDEX 01 01:03:47
  TRACK 51 AUDIO
    TITLE "0:"
    INDEX 01 01:07:66
  TRACK 52 AUDIO
    TITLE "12:cjc034_04830"
    INDEX 01 01:09:22
  TRACK 53 AUDIO
    TITLE "0:"
    INDEX 01 01:10:37
  TRACK 54 AUDIO
    TITLE "13:cjc034_04831"
    INDEX 01 01:10:69
  TRACK 55 AUDIO
    TITLE "0:"
    INDEX 01 01:12:15
  TRACK 56 AUDIO
    TITLE "14:cjc034_04832"
    INDEX 01 01:12:46
  TRACK 57 AUDIO
    TITLE "0:"
    INDEX 01 01:13:57
  TRACK 58 AUDIO
    TITLE "15:cjc034_04833"
    INDEX 01 01:14:17
  TRACK 59 AUDIO
    TITLE "0:"
    INDEX 01 01:19:25
